<?xml version="1.0" encoding="utf-8"?>
<svg version="1.1" xmlns="http://www.w3.org/2000/svg" width="1920" height="1920" viewBox="411 735 1073 444" xmlns:bx="https://boxy-svg.com">
  <defs>
    <symbol id="symbol-0" viewBox="0 0 192.6088 39.4082" bx:pinned="true">
      <title>Wing</title>
      <path d="M -125.55 24.32 C -110.132 16.37 -38.496 17.454 -0.165 9.361 C 17.38 5.657 31.535 0.509 42.95 0.818 C 74.005 1.658 74.774 34.611 46.9 39.63 C 34.966 41.779 12.009 37.45 0.252 35.323 C -49.322 26.353 -112.011 31.505 -125.55 24.32 Z" transform="matrix(1, 0, 0, 1, 125.54998779296875, -0.8046875)" style="fill: rgb(136, 136, 136);">
        <title>1</title>
      </path>
    </symbol>
    <symbol id="symbol-1" viewBox="0 0 390 443" bx:pinned="true">
      <title>Half body</title>
      <path d="M 0 274.981 L 0 47.851 L 44.34 47.941 C 69.29 47.941 62.713 77.461 83.69 77.461 C 145.862 77.461 192.155 118.841 249 118.841 C 260.492 118.841 263.027 116.025 263.027 108.731 L 263.27 79.851 C 263.27 58.424 274.621 58.211 285.44 58.211 C 292.926 58.211 295.492 55.531 295.492 49.266 L 295.34 13.53 C 295.34 -3.037 325.971 -3.75 325.971 13.311 L 326.43 49.161 C 326.43 55.046 332.267 57.961 337.11 57.961 C 348.426 57.961 361.611 56.825 361.611 82.471 L 361.711 108.541 C 361.711 116.037 360.184 123.461 371.241 123.461 C 394.883 123.461 389.808 160.775 369.879 160.641 C 368.749 160.633 253.77 160.151 253.77 160.151 C 213.343 160.151 165.69 185.461 165.69 185.461 L 271.8 280.731 C 295.127 305.443 294.87 329.052 294.87 378.551 C 294.87 383.791 295.08 422.348 295.08 422.348 C 295.071 445.979 255.411 445.915 255.42 422.284 C 255.42 422.284 254.98 378.831 254.98 377.001 C 254.98 329.866 251.684 315.475 237.53 303.331 C 237.53 303.331 130.34 210.441 128.83 209.301 C 118.39 201.651 107.796 200.795 96.69 200.461 C 81.362 200 69.968 219.494 61.255 236.258 C 46.592 264.47 41.937 274.461 34.69 274.461 L 0 274.981 Z" style="stroke-width: 1; fill: rgb(136, 136, 136);">
        <title>body</title>
      </path>
    </symbol>
    <bx:grid x="311.872" y="217.238" width="100" height="100"/>
  </defs>
  <use href="#symbol-0" width="192.60879516601562" height="39.408199310302734" transform="matrix(1, 0, 0, 1, 423.351044, 750)">
    <title>Wing 1</title>
  </use>
  <use href="#symbol-0" width="192.60879516601562" height="39.408199310302734" transform="matrix(-1, 0, 0, 1, 865.005127, 750)" style="">
    <title>Wing 2</title>
  </use>
  <use href="#symbol-0" width="192.60879516601562" height="39.408199310302734" transform="matrix(1, 0, 0, 1, 1033.915771, 750)">
    <title>Wing 3</title>
  </use>
  <use href="#symbol-0" width="192.60879516601562" height="39.408199310302734" transform="matrix(-1, 0, 0, 1, 1476.835938, 750)" style="">
    <title>Wing 4</title>
  </use>
  <use href="#symbol-1" width="384.60308837890625" height="568.7631225585938" transform="matrix(1, 0, 0, 1, 949, 675)">
    <title>body R</title>
  </use>
  <use href="#symbol-1" width="384.60308837890625" height="568.7631225585938" transform="matrix(-1, 0, 0, 1, 950, 675)" style="">
    <title>body L</title>
  </use>
</svg>